<?xml version="1.0" standalone="no"?>
<!DOCTYPE svg PUBLIC "-//W3C//DTD SVG 20010904//EN"
 "http://www.w3.org/TR/2001/REC-SVG-20010904/DTD/svg10.dtd">
<svg version="1.0" xmlns="http://www.w3.org/2000/svg"
 width="336.000000pt" height="143.000000pt" viewBox="0 0 336.000000 143.000000"
 preserveAspectRatio="xMidYMid meet">

<g transform="translate(0.000000,143.000000) scale(0.100000,-0.100000)"
fill="#000000" stroke="none">
<path d="M781 968 c-5 -13 -43 -107 -84 -210 l-75 -188 37 0 37 0 61 153 c33
83 65 151 69 150 5 -1 36 -68 69 -150 l60 -148 38 -3 c20 -2 37 -1 37 2 0 7
-155 390 -164 404 -4 7 -23 12 -42 12 -27 0 -36 -5 -43 -22z"/>
<path d="M1203 966 c-130 -62 -160 -230 -59 -331 74 -74 194 -85 268 -26 l23
19 -23 25 -24 25 -34 -20 c-58 -34 -141 -12 -180 47 -76 117 56 260 181 196
39 -21 40 -21 59 -2 25 25 16 44 -31 66 -61 30 -120 30 -180 1z"/>
<path d="M1637 983 c-6 -10 -167 -404 -167 -409 0 -2 17 -4 38 -4 l37 0 60
151 c33 83 65 150 70 148 6 -1 37 -69 70 -150 l60 -149 37 0 38 0 -17 43 c-9
23 -47 116 -83 207 l-66 165 -36 3 c-20 2 -38 -1 -41 -5z"/>
<path d="M2014 976 c-17 -8 -39 -24 -48 -37 -18 -27 -21 -81 -5 -111 13 -25
75 -52 152 -68 41 -8 62 -18 73 -34 19 -30 5 -71 -28 -79 -43 -12 -123 -7
-146 8 -19 14 -25 14 -53 0 l-31 -17 21 -22 c60 -64 230 -61 285 5 38 45 37
120 -2 159 -16 16 -49 34 -73 40 -131 34 -134 35 -137 59 -5 31 12 41 71 41
35 0 52 -5 64 -20 22 -26 73 -27 73 -2 0 70 -127 116 -216 78z"/>
<path d="M2315 978 c-3 -7 -4 -101 -3 -208 l3 -195 32 -3 c29 -3 32 0 38 30 4
19 5 56 3 83 l-3 50 103 3 102 3 0 -86 0 -85 35 0 35 0 0 210 0 210 -35 0 -35
0 0 -90 0 -90 -100 0 -100 0 -1 65 c-1 36 -3 70 -4 75 -1 6 -3 17 -4 25 -1 19
-59 21 -66 3z"/>
</g>
</svg>
